# xmcd CD database file
#
# Track frame offsets:
#	150
#	16479
#	30047
#	49773
#	62355
#	80616
#	102816
#	120965
#	130976
#	151163
#
# Disc length: 2290 seconds
#
# Revision: 0
# Processed by: cddbd v1.5.1PL0 Copyright (c) Steve Scherf et al.
# Submitted via: CDex 1.51
#
DISCID=6808f00a
DTITLE=canadian aid for chernobyl - the kids aren't alright
DYEAR=2000
DGENRE=Blues
TTITLE0=i'm ready/willie dixon
TTITLE1=my babe/willie dixon
TTITLE2=blow wind blow/mckinley morganfield
TTITLE3=i saw her standing there/lennon-mccartney
TTITLE4=got my mojo working/preston foster
TTITLE5=nadine/chuck berry
TTITLE6=what's the matter with the mill/mckinley morganfield
TTITLE7=un der the boardwalk/resnick-young
TTITLE8=shake rattle and roll/j.williams
TTITLE9=further on down the road/d.robey-j.veasy
EXTD=YEAR: 2000
EXTT0=
EXTT1=
EXTT2=
EXTT3=
EXTT4=
EXTT5=
EXTT6=
EXTT7=
EXTT8=
EXTT9=
PLAYORDER=
